<?xml version="1.0" encoding="utf-8"?>
<!-- Generator: Adobe Illustrator 27.0.0, SVG Export Plug-In . SVG Version: 6.00 Build 0)  -->
<svg version="1.1" id="Livello_1" xmlns="http://www.w3.org/2000/svg" xmlns:xlink="http://www.w3.org/1999/xlink" x="0px" y="0px"
	 viewBox="0 0 988.2 122.2" style="enable-background:new 0 0 988.2 122.2;" xml:space="preserve">
<style type="text/css">
	.st0{fill:#010100;}
</style>
<g>
	<g>
		<path class="st0" d="M31.6,119.57l-31.5,0l0-77.11l29.24,0l29.91,33.76l30.57-33.76l28.18,0l0,77.11l-31.37,0l0-29.77
			l-26.98,25.38h-2.26L31.6,90.07L31.6,119.57z"/>
		<path class="st0" d="M168.08,121.7c-22.07,0-33.1-13.03-33.1-35.1l0-44.14l31.64,0l0,35.5c0,11.97,3.59,17.28,15.02,17.28
			c10.1,0,15.02-5.98,15.02-18.08v-34.7l32.17,0l0,79.37l-30.31-20.21C194.27,113.72,184.83,121.7,168.08,121.7z"/>
		<path class="st0" d="M245.73,21.19l32.04,0l0,98.39l-32.04,0L245.73,21.19z"/>
		<path class="st0" d="M347.76,119.57c-9.57,0-17.02-1.2-22.33-3.86c-10.63-5.19-14.36-15.95-14.36-34.3V68.65l-17.95,0v-24.6
			c5.18-0.13,9.7-0.4,13.29-1.33c4.65-1.2,6.51-3.32,8.11-7.71c1.46-3.86,1.73-9.44,1.86-13.83l24.59,0l0,21.27l26.58,0v26.19
			l-26.58,0v9.84c0,4.25,0.4,7.58,1.06,9.71c1.6,4.39,3.71,5.45,12.22,5.45l13.29,0l0,25.93L347.76,119.57z"/>
		<path class="st0" d="M418.36,42.46l0,77.11l-32.83,0l0-77.11L418.36,42.46z"/>
		<path class="st0" d="M427.86,42.46l34.43,0l19.94,42.68l20.74-42.68l34.43,0l-39.61,77.11l-32.17,0L427.86,42.46z"/>
		<path class="st0" d="M586.4,122.1c-19.41,0-32.04-3.99-39.88-11.17s-10.9-16.75-10.9-27.92c0-8.24,1.99-15.16,5.72-21.8
			c7.84-13.03,23.26-21.01,47.46-21.01c11.7,0,21.27,1.73,28.71,5.32c15.15,6.91,22.33,19.54,22.33,35.76v7.58l-72.98,0
			c1.99,7.71,8.37,11.43,21.53,11.43c9.97,0,14.09-1.99,16.62-5.32l34.16,0C632.52,114.26,615.77,122.1,586.4,122.1z M567.39,73.31
			l40.68,0c-1.99-7.98-8.11-11.04-19.67-11.04C576.43,62.27,569.91,66.13,567.39,73.31z"/>
		<path class="st0" d="M732.91,94.18l33.9,0c2.26,5.58,7.71,7.58,20.87,7.58c11.03,0,14.49-2.39,14.49-5.72
			c0-1.06-0.66-1.99-1.86-2.66c-2.26-1.46-8.77-2.13-22.47-2.66c-10.37-0.53-18.34-1.6-24.59-3.19
			c-12.5-3.19-17.55-9.31-17.55-19.81c0-16.89,14.89-27.52,44.93-27.52c29.51,0,45.33,8.11,51.44,26.86l-32.3,0
			c-2.13-5.72-9.44-7.45-19.94-7.45c-11.17,0-14.09,2.39-14.09,5.45c0,1.06,0.66,2.13,2.13,2.79c2.79,1.46,9.31,2.26,21.4,2.79
			c11.03,0.53,19.67,1.6,26.05,3.32c12.63,3.32,17.28,9.57,17.28,20.08c0,5.58-1.73,10.37-5.05,14.63
			c-6.65,8.38-20.34,13.43-42.94,13.43C755.38,122.1,736.77,114.52,732.91,94.18z"/>
		<path class="st0" d="M894.48,122.1c-19.41,0-32.04-3.99-39.88-11.17c-7.84-7.18-10.9-16.75-10.9-27.92
			c0-8.24,1.99-15.16,5.72-21.8c7.84-13.03,23.26-21.01,47.46-21.01c11.7,0,21.27,1.73,28.71,5.32
			c15.15,6.91,22.33,19.54,22.33,35.76v7.58l-72.98,0c1.99,7.71,8.37,11.43,21.53,11.43c9.97,0,14.09-1.99,16.62-5.32l34.16,0
			C940.6,114.26,923.85,122.1,894.48,122.1z M875.47,73.31l40.68,0c-1.99-7.98-8.11-11.04-19.67-11.04
			C884.51,62.27,877.99,66.13,875.47,73.31z"/>
	</g>
	<ellipse class="st0" cx="401.94" cy="21.19" rx="16.42" ry="16.42"/>
	<path class="st0" d="M654.35,40.2l30.84,24.46c3.06-15.69,12.1-23.4,29.78-23.4h8.37v31.78l-13.43,0c-6.11,0-10.63,0.8-13.82,1.99
		c-6.38,2.79-8.37,9.04-8.37,20.21v24.33l-33.37,0V40.2z"/>
	<g>
		<g>
			<path class="st0" d="M964.91,27.16l-4.52,0V13.43l7.6,0c1.74,0,3.1,0.17,4.14,0.48c2.09,0.63,2.91,1.94,2.91,4.02
				c0,1.88-0.84,2.97-2.72,3.57c1.93,0.46,2.55,1.51,2.55,3.79v0.88c0,0.4,0.13,0.79,0.5,0.99l-4.84,0
				c-0.36-0.17-0.46-0.59-0.46-0.92V25.2c0-1.51-0.56-1.95-2.39-1.95l-2.76,0V27.16z M964.91,19.82h3.08c1.44,0,2.39-0.25,2.39-1.32
				v-0.13c0-1.04-0.73-1.32-2.34-1.32h-3.14V19.82z"/>
		</g>
		<path class="st0" d="M967.44,41.42c-11.39,0-20.66-9.27-20.66-20.66S956.05,0.1,967.44,0.1c11.39,0,20.66,9.27,20.66,20.66
			S978.83,41.42,967.44,41.42z M967.44,6.62c-7.79,0-14.14,6.34-14.14,14.14s6.34,14.14,14.14,14.14c7.79,0,14.13-6.34,14.13-14.14
			S975.24,6.62,967.44,6.62z"/>
	</g>
</g>
</svg>
